<svg width="80" height="24" viewBox="0 0 80 24" fill="none" xmlns="http://www.w3.org/2000/svg">
<path d="M4.688 17.976V11.808H7.4L10.112 17.976H14.12L10.856 11.16C12.752 10.296 14 8.544 14 6.336C14 3.12 11.624 0.887999 8.264 0.887999H0.992V17.976H4.688ZM4.688 4.08H7.688C9.224 4.08 10.184 4.992 10.184 6.36C10.184 7.776 9.176 8.76 7.64 8.76H4.688V4.08ZM21.9528 5.4C18.1128 5.4 15.3528 8.184 15.3528 11.832C15.3528 15.456 18.1128 18.288 21.9528 18.288C25.7928 18.288 28.5528 15.456 28.5528 11.832C28.5528 8.184 25.7928 5.4 21.9528 5.4ZM21.9528 8.64C23.6088 8.64 24.8568 9.912 24.8568 11.832C24.8568 13.752 23.6088 15.048 21.9528 15.048C20.2968 15.048 19.0488 13.752 19.0488 11.832C19.0488 9.912 20.2968 8.64 21.9528 8.64ZM30.7933 14.496C30.7933 17.088 32.3053 18.288 34.6093 18.288C35.3533 18.288 35.8573 18.168 36.3133 17.976V14.976C36.0013 15.096 35.7133 15.12 35.4973 15.12C34.5613 15.12 34.4413 14.496 34.4413 13.824V0.887999H30.7933V14.496ZM38.1995 14.496C38.1995 17.088 39.7115 18.288 42.0155 18.288C42.7595 18.288 43.2635 18.168 43.7195 17.976V14.976C43.4075 15.096 43.1195 15.12 42.9035 15.12C41.9675 15.12 41.8475 14.496 41.8475 13.824V0.887999H38.1995V14.496ZM45.7498 18H49.3978V5.688H45.7498V18ZM47.5258 0.24C46.3978 0.24 45.5098 1.056 45.5098 2.184C45.5098 3.312 46.3978 4.152 47.5258 4.152C48.6538 4.152 49.5658 3.312 49.5658 2.184C49.5658 1.056 48.6538 0.24 47.5258 0.24ZM52.7107 5.688V18H56.3587V11.592C56.3587 9.984 57.1987 8.616 58.7827 8.616C60.1267 8.616 60.9907 9.456 60.9907 11.064V18H64.6387V10.512C64.6387 7.32 62.8147 5.4 59.8627 5.4C58.2067 5.4 57.0067 6.024 56.2147 7.272V5.688H52.7107ZM66.5816 19.752C66.5816 21.768 69.0056 23.088 72.5816 23.088C76.4936 23.088 79.0136 21.36 79.0136 19.128C79.0136 16.992 77.2856 15.48 74.7656 15.48H71.6936C71.1896 15.48 70.7096 15.312 70.7096 14.856C70.7096 14.568 70.9496 14.328 71.4536 14.136C71.6696 14.16 71.9096 14.16 72.1256 14.16C75.0776 14.16 77.3576 12.264 77.3576 9.768C77.3576 9.288 77.2616 8.832 77.0696 8.4H78.8936V5.688H73.8536C73.3016 5.496 72.7496 5.4 72.1736 5.4C69.2216 5.4 66.9896 7.344 66.9896 9.768C66.9896 11.304 67.8296 12.576 69.1016 13.368C68.1656 13.872 67.5416 14.64 67.5416 15.504C67.5416 16.272 67.8296 16.848 68.5256 17.328C67.3976 17.784 66.5816 18.576 66.5816 19.752ZM72.1736 8.04C73.3016 8.04 74.1416 8.784 74.1416 9.768C74.1416 10.728 73.3016 11.52 72.1736 11.52C71.0456 11.52 70.2056 10.728 70.2056 9.768C70.2056 8.784 71.0456 8.04 72.1736 8.04ZM70.1096 19.2C70.1096 18.72 70.4696 18.408 70.8536 18.216H74.1176C74.8136 18.216 75.4616 18.528 75.4616 19.176C75.4616 19.92 74.5256 20.352 72.6056 20.352C71.0936 20.352 70.1096 19.944 70.1096 19.2Z" fill="black"/>
</svg>
